<svg width="222" height="40" viewBox="0 0 222 40" fill="none" xmlns="http://www.w3.org/2000/svg">
<path d="M69.4119 23.6967C72.146 22.0611 73.7628 19.2124 73.7628 15.9919C73.7628 10.1519 69.41 6.37744 62.6742 6.37744H52.0645V32.6239H57.9815V25.5745H62.1954C62.8695 25.5745 63.476 25.505 64.0338 25.4224L68.7847 32.6371H75.6538L69.4119 23.6967ZM67.5509 15.9919C67.5509 18.4989 65.5172 20.3917 62.8207 20.3917H57.9796V11.5208H62.8564C65.5755 11.5208 67.5509 13.4024 67.5509 15.9919Z" fill="#13CDBE"/>
<path d="M85.8409 13.0645C80.1191 13.0645 75.6367 17.4342 75.6367 23.0113C75.6367 28.5885 80.1191 32.9582 85.8409 32.9582C91.5626 32.9582 96.0826 28.5885 96.0826 23.0113C96.0826 17.4342 91.5833 13.0645 85.8409 13.0645ZM85.8409 27.6308C83.2701 27.6308 81.4054 25.6872 81.4054 23.0113C81.4054 20.3354 83.3114 18.39 85.8409 18.39C88.3703 18.39 90.2763 20.3767 90.2763 23.0113C90.2763 25.6459 88.4097 27.6308 85.8409 27.6308Z" fill="#13CDBE"/>
<path d="M104.225 6.00195H98.5293V32.624H104.225V6.00195Z" fill="#13CDBE"/>
<path d="M116.573 13.0644C111.015 13.0644 106.662 17.4341 106.662 23.0113C106.662 27.9537 110.256 32.9581 117.125 32.9581C119.674 32.9581 122.115 32.2371 124.179 30.87L124.468 30.6785L122.271 26.4608L121.914 26.7012C120.644 27.5575 118.868 28.0701 117.161 28.0701C114.88 28.0701 113.193 26.9641 112.557 25.0863H125.741L125.782 24.7501C125.786 24.7145 125.897 23.8338 125.897 22.9343C125.897 17.4923 121.713 13.0625 116.573 13.0625V13.0644ZM116.427 17.9486C118.376 17.9486 119.927 19.1767 120.408 21.0452H112.468C113.035 19.1993 114.607 17.9486 116.427 17.9486Z" fill="#13CDBE"/>
<path d="M142.152 20.7505H132.032V25.4526H142.152V20.7505Z" fill="#13CDBE"/>
<path d="M158.896 6.37744H148.286V32.6239H154.203V25.5351H158.86C165.596 25.5351 169.947 21.7757 169.947 15.9563C169.947 10.1369 165.609 6.37744 158.896 6.37744ZM159.117 20.356H154.203V11.5603H159.153C161.831 11.5603 163.773 13.408 163.773 15.9581C163.773 18.5082 161.814 20.3579 159.116 20.3579L159.117 20.356Z" fill="#13CDBE"/>
<path d="M178.127 6H172.432V32.6239H178.127V6Z" fill="#13CDBE"/>
<path d="M194.618 13.4287V15.0549C193.285 13.793 191.355 13.0625 189.263 13.0625C184.223 13.0625 180.566 17.2463 180.566 23.0094C180.566 28.7725 184.224 32.9563 189.263 32.9563C191.386 32.9563 193.313 32.2427 194.618 31.0089V32.5882H200.205V13.4287H194.618ZM194.507 23.0113C194.507 25.7304 192.864 27.6307 190.513 27.6307C188.162 27.6307 186.337 25.6872 186.337 23.0113C186.337 20.3353 188.095 18.3899 190.513 18.3899C192.932 18.3899 194.507 20.3335 194.507 23.0113Z" fill="#13CDBE"/>
<path d="M216.161 13.4282L212.717 22.1752C212.491 22.7704 212.149 23.7112 211.892 24.4286C211.652 23.7882 211.327 22.9488 211.036 22.2691L207.22 13.4301H201.361L209.228 30.1053L208.903 30.7587C208.307 32.0469 207.583 32.7455 205.461 32.7455H205.078V37.9997H205.461C207.055 37.9997 211.289 37.9997 213.537 32.8769L221.935 13.432H216.162L216.161 13.4282Z" fill="#13CDBE"/>
<rect width="40" height="40" rx="4" fill="#13CDBE"/>
<rect x="2.5" y="2.5" width="35" height="35" rx="8" fill="#13CDBE"/>
<path d="M7.75 24.8125C6.7835 24.8125 6 25.596 6 26.5625V33.1803C6 33.5201 6.41087 33.6903 6.65117 33.45L8.28868 31.8125H23.5C24.4665 31.8125 25.25 31.029 25.25 30.0625V26.5625C25.25 25.596 24.4665 24.8125 23.5 24.8125H7.75Z" fill="#D9FCF9"/>
<path d="M10.375 7.3125C9.4085 7.3125 8.625 8.096 8.625 9.0625V15.6803C8.625 16.0201 9.03587 16.1903 9.27617 15.95L10.9137 14.3125H24.375C25.3415 14.3125 26.125 13.529 26.125 12.5625V9.0625C26.125 8.096 25.3415 7.3125 24.375 7.3125H10.375Z" fill="#D9FCF9"/>
<path d="M31.375 16.0625C32.3415 16.0625 33.125 16.846 33.125 17.8125V24.4303C33.125 24.7701 32.7141 24.9403 32.4738 24.7L30.8363 23.0625H13.875C12.9085 23.0625 12.125 22.279 12.125 21.3125V17.8125C12.125 16.846 12.9085 16.0625 13.875 16.0625H31.375Z" fill="white"/>
</svg>
